<?xml version="1.0" standalone="no"?>
<!DOCTYPE svg PUBLIC "-//W3C//DTD SVG 20010904//EN"
 "http://www.w3.org/TR/2001/REC-SVG-20010904/DTD/svg10.dtd">
<svg version="1.0" xmlns="http://www.w3.org/2000/svg"
 width="951.000000pt" height="369.000000pt" viewBox="0 0 951.000000 369.000000"
 preserveAspectRatio="xMidYMid meet">
<metadata>
Created by potrace 1.15, written by Peter Selinger 2001-2017
</metadata>
<g transform="translate(0.000000,369.000000) scale(0.100000,-0.100000)"
fill="#000000" stroke="none">
<path d="M120 1665 l0 -1635 480 0 480 0 0 1635 0 1635 -480 0 -480 0 0 -1635z"/>
<path d="M2520 605 l0 -575 480 0 480 0 0 575 0 575 -480 0 -480 0 0 -575z"/>
<path d="M1320 590 l0 -560 480 0 480 0 0 560 0 560 -480 0 -480 0 0 -560z"/>
<path d="M6120 195 l0 -165 480 0 480 0 0 165 0 165 -480 0 -480 0 0 -165z"/>
<path d="M4920 175 l0 -145 480 0 480 0 0 145 0 145 -480 0 -480 0 0 -145z"/>
<path d="M8520 40 c0 -7 167 -10 480 -10 313 0 480 3 480 10 0 7 -167 10 -480
10 -313 0 -480 -3 -480 -10z"/>
</g>
</svg>
