<?xml version="1.0" standalone="no"?>
<!DOCTYPE svg PUBLIC "-//W3C//DTD SVG 20010904//EN"
 "http://www.w3.org/TR/2001/REC-SVG-20010904/DTD/svg10.dtd">
<svg version="1.0" xmlns="http://www.w3.org/2000/svg"
 width="958.000000pt" height="366.000000pt" viewBox="0 0 958.000000 366.000000"
 preserveAspectRatio="xMidYMid meet">
<metadata>
Created by potrace 1.15, written by Peter Selinger 2001-2017
</metadata>
<g transform="translate(0.000000,366.000000) scale(0.100000,-0.100000)"
fill="#000000" stroke="none">
<path d="M6800 1635 l0 -1635 380 0 380 0 0 1635 0 1635 -380 0 -380 0 0
-1635z"/>
<path d="M5850 1410 l0 -1410 380 0 380 0 0 1410 0 1410 -380 0 -380 0 0
-1410z"/>
<path d="M4900 1085 l0 -1085 380 0 380 0 0 1085 0 1085 -380 0 -380 0 0
-1085z"/>
<path d="M7750 1080 l0 -1080 380 0 380 0 0 1080 0 1080 -380 0 -380 0 0
-1080z"/>
<path d="M3950 605 l0 -605 380 0 380 0 0 605 0 605 -380 0 -380 0 0 -605z"/>
<path d="M3000 235 l0 -235 380 0 380 0 0 235 0 235 -380 0 -380 0 0 -235z"/>
<path d="M8700 175 l0 -175 380 0 380 0 0 175 0 175 -380 0 -380 0 0 -175z"/>
<path d="M2050 105 l0 -105 380 0 380 0 0 105 0 105 -380 0 -380 0 0 -105z"/>
<path d="M1100 45 l0 -45 380 0 380 0 0 45 0 45 -380 0 -380 0 0 -45z"/>
<path d="M150 10 c0 -6 133 -10 380 -10 247 0 380 4 380 10 0 6 -133 10 -380
10 -247 0 -380 -4 -380 -10z"/>
</g>
</svg>
