<?xml version="1.0" standalone="no"?>
<!DOCTYPE svg PUBLIC "-//W3C//DTD SVG 20010904//EN"
 "http://www.w3.org/TR/2001/REC-SVG-20010904/DTD/svg10.dtd">
<svg version="1.0" xmlns="http://www.w3.org/2000/svg"
 width="843.000000pt" height="329.000000pt" viewBox="0 0 843.000000 329.000000"
 preserveAspectRatio="xMidYMid meet">
<metadata>
Created by potrace 1.15, written by Peter Selinger 2001-2017
</metadata>
<g transform="translate(0.000000,329.000000) scale(0.100000,-0.100000)"
fill="#000000" stroke="none">
<path d="M8305 3022 l0 -247 -583 0 c-320 0 -582 -3 -582 -8 0 -4 264 -6 588
-5 l587 3 3 244 c1 135 -1 248 -5 252 -5 5 -8 -103 -8 -239z"/>
<path d="M7217 3233 c-4 -3 -7 -46 -7 -95 l0 -88 115 0 115 0 0 95 0 95 -108
0 c-60 0 -112 -3 -115 -7z"/>
<path d="M7223 3023 c-9 -3 -13 -33 -13 -99 l0 -95 113 3 112 3 3 98 3 97
-103 -1 c-57 0 -109 -3 -115 -6z"/>
<path d="M270 1500 l0 -1400 367 0 366 0 -6 1028 c-4 565 -7 1195 -7 1400 l0
372 -360 0 -360 0 0 -1400z"/>
<path d="M1180 935 l0 -835 360 0 360 0 0 835 0 835 -360 0 -360 0 0 -835z"/>
<path d="M2090 763 l0 -663 360 0 360 0 2 553 c2 303 2 603 0 665 l-3 113
-359 -2 -360 -3 0 -663z"/>
<path d="M3000 535 l0 -435 360 0 360 0 0 435 0 435 -360 0 -360 0 0 -435z"/>
<path d="M3910 500 l0 -400 360 0 360 0 0 400 0 400 -360 0 -360 0 0 -400z"/>
<path d="M4820 420 l0 -320 360 0 360 0 0 320 0 320 -360 0 -360 0 0 -320z"/>
<path d="M5730 335 l0 -235 360 0 360 0 0 235 0 235 -360 0 -360 0 0 -235z"/>
<path d="M6640 330 l0 -230 360 0 360 0 0 230 0 230 -360 0 -360 0 0 -230z"/>
<path d="M7909 403 l-356 -3 -6 -107 c-4 -58 -7 -126 -7 -150 l0 -43 365 0
365 0 0 155 c0 85 -1 154 -2 153 -2 -2 -163 -4 -359 -5z"/>
</g>
</svg>
