<?xml version="1.0" standalone="no"?>
<!DOCTYPE svg PUBLIC "-//W3C//DTD SVG 20010904//EN"
 "http://www.w3.org/TR/2001/REC-SVG-20010904/DTD/svg10.dtd">
<svg version="1.0" xmlns="http://www.w3.org/2000/svg"
 width="860.000000pt" height="314.000000pt" viewBox="0 0 860.000000 314.000000"
 preserveAspectRatio="xMidYMid meet">
<metadata>
Created by potrace 1.15, written by Peter Selinger 2001-2017
</metadata>
<g transform="translate(0.000000,314.000000) scale(0.100000,-0.100000)"
fill="#000000" stroke="none">
<path d="M8415 2893 l0 -248 -578 0 c-317 0 -577 -3 -577 -8 0 -4 262 -6 583
-5 l582 3 3 253 c1 138 -1 252 -5 252 -5 0 -8 -111 -8 -247z"/>
<path d="M7337 3103 c-4 -3 -7 -46 -7 -95 l0 -89 113 3 112 3 3 93 3 92 -109
0 c-60 0 -112 -3 -115 -7z"/>
<path d="M140 1500 l0 -1400 365 0 365 0 0 1400 0 1400 -365 0 -365 0 0 -1400z"/>
<path d="M7343 2894 c-9 -4 -13 -34 -13 -100 l0 -95 113 3 112 3 0 95 0 95
-100 2 c-55 1 -106 -1 -112 -3z"/>
<path d="M1050 1250 l0 -1150 365 0 365 0 0 1150 0 1150 -365 0 -365 0 0
-1150z"/>
<path d="M1960 655 l0 -555 365 0 365 0 0 555 0 555 -365 0 -365 0 0 -555z"/>
<path d="M2870 575 l0 -475 365 0 365 0 0 475 0 475 -365 0 -365 0 0 -475z"/>
<path d="M3780 460 l0 -360 365 0 365 0 0 360 0 360 -365 0 -365 0 0 -360z"/>
<path d="M4690 280 l0 -180 365 0 365 0 0 180 0 180 -365 0 -365 0 0 -180z"/>
<path d="M5607 313 c-4 -3 -7 -53 -7 -110 l0 -103 365 0 365 0 0 110 0 110
-358 0 c-197 0 -362 -3 -365 -7z"/>
<path d="M6510 205 l0 -105 365 0 365 0 0 105 0 105 -365 0 -365 0 0 -105z"/>
<path d="M7426 194 c-3 -26 -6 -57 -6 -70 l0 -24 365 0 365 0 0 70 0 70 -359
0 -358 0 -7 -46z"/>
</g>
</svg>
