<?xml version="1.0" standalone="no"?>
<!DOCTYPE svg PUBLIC "-//W3C//DTD SVG 20010904//EN"
 "http://www.w3.org/TR/2001/REC-SVG-20010904/DTD/svg10.dtd">
<svg version="1.0" xmlns="http://www.w3.org/2000/svg"
 width="837.000000pt" height="321.000000pt" viewBox="0 0 837.000000 321.000000"
 preserveAspectRatio="xMidYMid meet">
<metadata>
Created by potrace 1.15, written by Peter Selinger 2001-2017
</metadata>
<g transform="translate(0.000000,321.000000) scale(0.100000,-0.100000)"
fill="#000000" stroke="none">
<path d="M8175 2822 l0 -247 -583 0 c-320 0 -582 -3 -582 -8 0 -4 264 -6 588
-5 l587 3 3 244 c1 135 -1 248 -5 252 -5 5 -8 -103 -8 -239z"/>
<path d="M7087 3033 c-4 -3 -7 -46 -7 -95 l0 -88 115 0 115 0 0 95 0 95 -108
0 c-60 0 -112 -3 -115 -7z"/>
<path d="M86 2943 c-3 -3 -6 -636 -6 -1405 l0 -1398 365 0 365 0 0 1405 0
1405 -359 0 c-197 -1 -361 -4 -365 -7z"/>
<path d="M7093 2823 c-9 -3 -13 -33 -13 -99 l0 -95 113 3 112 3 3 98 3 97
-103 -1 c-57 0 -109 -3 -115 -6z"/>
<path d="M990 1430 l0 -1290 365 0 365 0 0 1290 0 1290 -365 0 -365 0 0 -1290z"/>
<path d="M1900 900 l0 -760 365 0 365 0 0 760 0 760 -365 0 -365 0 0 -760z"/>
<path d="M2810 460 l0 -320 365 0 365 0 0 320 0 320 -365 0 -365 0 0 -320z"/>
<path d="M3720 435 l0 -295 365 0 365 0 0 295 0 295 -365 0 -365 0 0 -295z"/>
<path d="M4630 315 l0 -175 365 0 365 0 0 175 0 175 -365 0 -365 0 0 -175z"/>
<path d="M5540 225 l0 -85 365 0 365 0 0 85 0 85 -365 0 -365 0 0 -85z"/>
<path d="M6450 225 l0 -85 365 0 365 0 0 85 0 85 -365 0 -365 0 0 -85z"/>
<path d="M7360 225 l0 -85 365 0 365 0 0 85 0 85 -365 0 -365 0 0 -85z"/>
</g>
</svg>
