<?xml version="1.0" standalone="no"?>
<!DOCTYPE svg PUBLIC "-//W3C//DTD SVG 20010904//EN"
 "http://www.w3.org/TR/2001/REC-SVG-20010904/DTD/svg10.dtd">
<svg version="1.0" xmlns="http://www.w3.org/2000/svg"
 width="977.000000pt" height="380.000000pt" viewBox="0 0 977.000000 380.000000"
 preserveAspectRatio="xMidYMid meet">
<metadata>
Created by potrace 1.15, written by Peter Selinger 2001-2017
</metadata>
<g transform="translate(0.000000,380.000000) scale(0.100000,-0.100000)"
fill="#000000" stroke="none">
<path d="M6820 3225 l0 -425 1225 0 1225 0 0 425 0 425 -1225 0 -1225 0 0
-425z m1220 280 l0 -135 -605 0 -605 0 0 135 0 135 605 0 605 0 0 -135z m1220
0 l0 -135 -605 0 -605 0 0 135 0 135 605 0 605 0 0 -135z m-1220 -280 l0 -135
-605 0 -605 0 0 135 0 135 605 0 605 0 0 -135z m1220 0 l0 -135 -605 0 -605 0
0 135 0 135 605 0 605 0 0 -135z m-1220 -280 l0 -135 -605 0 -605 0 0 135 0
135 605 0 605 0 0 -135z m1220 0 l0 -135 -605 0 -605 0 0 135 0 135 605 0 605
0 0 -135z"/>
<path d="M1520 3380 c0 -16 -7 -20 -35 -20 l-35 0 0 -1520 0 -1520 70 0 70 0
0 1540 0 1540 -35 0 c-28 0 -35 -4 -35 -20z"/>
<path d="M1310 1790 l0 -1470 35 0 35 0 0 1470 0 1470 -35 0 -35 0 0 -1470z"/>
<path d="M1800 1785 l0 -1465 70 0 70 0 0 1375 0 1375 -35 0 -35 0 0 90 0 90
-35 0 -35 0 0 -1465z"/>
<path d="M1660 1765 l0 -1445 35 0 35 0 0 1445 0 1445 -35 0 -35 0 0 -1445z"/>
<path d="M1170 2915 l0 -115 -35 0 -35 0 0 -1240 0 -1240 70 0 70 0 0 1355 0
1355 -35 0 -35 0 0 -115z"/>
<path d="M2010 1565 l0 -1245 35 0 35 0 0 1245 0 1245 -35 0 -35 0 0 -1245z"/>
<path d="M7310 2395 l0 -295 685 0 685 0 0 295 0 295 -685 0 -685 0 0 -295z
m1360 0 l0 -285 -675 0 -675 0 0 285 0 285 675 0 675 0 0 -285z"/>
<path d="M7403 2653 c-9 -3 -13 -36 -13 -114 l0 -109 135 0 135 0 0 115 0 115
-122 -1 c-68 0 -129 -3 -135 -6z"/>
<path d="M7403 2403 c-9 -3 -13 -36 -13 -114 l0 -109 135 0 135 0 0 115 0 115
-122 -1 c-68 0 -129 -3 -135 -6z"/>
<path d="M2150 1460 l0 -1140 70 0 70 0 0 1030 0 1030 -35 0 -35 0 0 110 0
110 -35 0 -35 0 0 -1140z"/>
<path d="M960 1420 l0 -1100 35 0 35 0 0 1100 0 1100 -35 0 -35 0 0 -1100z"/>
<path d="M2360 1255 l0 -935 70 0 70 0 0 815 0 815 -35 0 -35 0 0 120 0 120
-35 0 -35 0 0 -935z"/>
<path d="M820 1885 l0 -205 -35 0 -35 0 0 -680 0 -680 70 0 70 0 0 885 0 885
-35 0 -35 0 0 -205z"/>
<path d="M2570 1045 l0 -725 35 0 35 0 0 725 0 725 -35 0 -35 0 0 -725z"/>
<path d="M2710 935 l0 -615 70 0 70 0 0 535 0 535 -35 0 -35 0 0 80 0 80 -35
0 -35 0 0 -615z"/>
<path d="M610 830 l0 -510 35 0 35 0 0 510 0 510 -35 0 -35 0 0 -510z"/>
<path d="M2920 800 l0 -480 35 0 35 0 0 480 0 480 -35 0 -35 0 0 -480z"/>
<path d="M3060 725 l0 -405 70 0 70 0 0 365 0 365 -35 0 c-34 0 -35 1 -35 40
0 39 -1 40 -35 40 l-35 0 0 -405z"/>
<path d="M470 910 l0 -130 -35 0 -35 0 0 -230 0 -230 70 0 70 0 0 360 0 360
-35 0 -35 0 0 -130z"/>
<path d="M3270 630 l0 -310 35 0 35 0 0 310 0 310 -35 0 -35 0 0 -310z"/>
<path d="M3410 575 l0 -255 70 0 70 0 0 215 0 215 -35 0 c-34 0 -35 1 -35 40
0 39 -1 40 -35 40 l-35 0 0 -255z"/>
<path d="M3620 500 l0 -180 35 0 35 0 0 180 0 180 -35 0 -35 0 0 -180z"/>
<path d="M3760 480 l0 -160 70 0 70 0 0 130 0 130 -35 0 c-32 0 -35 2 -35 30
0 28 -3 30 -35 30 l-35 0 0 -160z"/>
<path d="M260 510 l0 -50 -35 0 -35 0 0 -70 0 -70 70 0 70 0 0 120 0 120 -35
0 -35 0 0 -50z"/>
<path d="M3970 435 l0 -115 35 0 35 0 0 115 0 115 -35 0 -35 0 0 -115z"/>
<path d="M4110 420 l0 -100 70 0 70 0 0 70 0 70 -35 0 c-32 0 -35 2 -35 30 0
28 -3 30 -35 30 l-35 0 0 -100z"/>
<path d="M4460 380 l0 -60 70 0 70 0 0 54 0 53 -52 7 c-92 11 -88 13 -88 -54z"/>
<path d="M191 268 c2 -31 2 -31 6 -5 l4 27 2304 0 2304 0 4 -27 4 -28 2 28 1
27 2304 0 2305 0 4 -28 c4 -25 4 -25 6 6 l1 32 -4625 0 -4625 0 1 -32z"/>
</g>
</svg>
