<?xml version="1.0" standalone="no"?>
<!DOCTYPE svg PUBLIC "-//W3C//DTD SVG 20010904//EN"
 "http://www.w3.org/TR/2001/REC-SVG-20010904/DTD/svg10.dtd">
<svg version="1.0" xmlns="http://www.w3.org/2000/svg"
 width="953.000000pt" height="369.000000pt" viewBox="0 0 953.000000 369.000000"
 preserveAspectRatio="xMidYMid meet">
<metadata>
Created by potrace 1.15, written by Peter Selinger 2001-2017
</metadata>
<g transform="translate(0.000000,369.000000) scale(0.100000,-0.100000)"
fill="#000000" stroke="none">
<path d="M5060 1760 l0 -1540 45 0 45 0 0 1540 0 1540 -45 0 -45 0 0 -1540z"/>
<path d="M2540 575 l0 -355 45 0 45 0 0 355 0 355 -45 0 -45 0 0 -355z"/>
<path d="M4430 550 l0 -330 45 0 45 0 0 330 0 330 -45 0 -45 0 0 -330z"/>
<path d="M3800 540 l0 -320 45 0 45 0 0 320 0 320 -45 0 -45 0 0 -320z"/>
<path d="M3170 535 l0 -315 45 0 45 0 0 315 0 315 -45 0 -45 0 0 -315z"/>
<path d="M1910 390 l0 -170 45 0 45 0 0 170 0 170 -45 0 -45 0 0 -170z"/>
<path d="M1280 305 l0 -85 45 0 45 0 0 85 0 85 -45 0 -45 0 0 -85z"/>
<path d="M111 168 c2 -31 2 -31 6 -5 l4 27 2334 0 2334 0 4 -27 4 -28 2 28 1
27 2334 0 2335 0 4 -28 c4 -25 4 -25 6 6 l1 32 -4685 0 -4685 0 1 -32z"/>
</g>
</svg>
