<?xml version="1.0" standalone="no"?>
<!DOCTYPE svg PUBLIC "-//W3C//DTD SVG 20010904//EN"
 "http://www.w3.org/TR/2001/REC-SVG-20010904/DTD/svg10.dtd">
<svg version="1.0" xmlns="http://www.w3.org/2000/svg"
 width="952.000000pt" height="374.000000pt" viewBox="0 0 952.000000 374.000000"
 preserveAspectRatio="xMidYMid meet">
<metadata>
Created by potrace 1.15, written by Peter Selinger 2001-2017
</metadata>
<g transform="translate(0.000000,374.000000) scale(0.100000,-0.100000)"
fill="#000000" stroke="none">
<path d="M6730 3275 l0 -425 1225 0 1225 0 0 425 0 425 -1225 0 -1225 0 0
-425z m1220 280 l0 -135 -605 0 -605 0 0 135 0 135 605 0 605 0 0 -135z m1220
0 l0 -135 -605 0 -605 0 0 135 0 135 605 0 605 0 0 -135z m-1220 -280 l0 -135
-605 0 -605 0 0 135 0 135 605 0 605 0 0 -135z m1220 0 l0 -135 -605 0 -605 0
0 135 0 135 605 0 605 0 0 -135z m-1220 -280 l0 -135 -605 0 -605 0 0 135 0
135 605 0 605 0 0 -135z m1220 0 l0 -135 -605 0 -605 0 0 135 0 135 605 0 605
0 0 -135z"/>
<path d="M3240 2675 l0 -655 -50 0 -50 0 0 455 0 455 -50 0 -50 0 0 -645 0
-645 -50 0 -50 0 0 665 0 665 -50 0 -50 0 0 -700 0 -700 -50 0 -50 0 0 565 0
565 -50 0 -50 0 0 -695 0 -695 -50 0 -50 0 0 300 0 300 -50 0 -50 0 0 -415 0
-415 -50 0 -50 0 0 440 0 440 -50 0 -50 0 0 -525 0 -525 -50 0 -50 0 0 -70 0
-70 -50 0 -50 0 0 420 0 420 -50 0 -50 0 0 -445 0 -445 -50 0 -50 0 0 245 0
245 -50 0 -50 0 0 -270 0 -270 -50 0 -50 0 0 340 0 340 -50 0 -50 0 0 -315 0
-315 -50 0 -50 0 0 175 0 175 -50 0 -50 0 0 -265 0 -265 -50 0 -50 0 0 90 0
90 -50 0 -50 0 0 -75 0 -75 -50 0 -50 0 0 320 0 320 -50 0 -50 0 0 -185 0
-185 -50 0 -50 0 0 -80 0 -80 -50 0 -50 0 0 -125 0 -125 -50 0 -50 0 0 120 0
120 -100 0 -100 0 0 1155 0 1155 -50 0 -50 0 0 -1365 0 -1365 3300 0 c3293 0
3300 0 3300 20 0 17 -7 20 -50 20 -27 0 -50 -4 -50 -10 0 -5 -22 -10 -50 -10
-43 0 -50 3 -50 20 0 17 -7 20 -50 20 -27 0 -50 -4 -50 -10 0 -5 -22 -10 -50
-10 -38 0 -50 4 -50 15 0 11 -12 15 -50 15 -38 0 -50 -4 -50 -15 0 -11 -12
-15 -50 -15 l-50 0 0 35 0 35 -50 0 c-49 0 -50 -1 -50 -30 0 -29 -1 -30 -50
-30 l-50 0 0 65 0 65 -50 0 -50 0 0 -40 0 -40 -50 0 -50 0 0 95 0 95 -50 0
-50 0 0 -56 0 -57 -77 7 c-42 3 -87 6 -100 6 -23 0 -23 1 -23 120 l0 120 -50
0 -50 0 0 -80 0 -80 -50 0 -50 0 0 180 0 180 -50 0 -50 0 0 -120 0 -120 -50 0
-50 0 0 255 0 255 -50 0 -50 0 0 -195 0 -195 -50 0 -50 0 0 320 0 320 -50 0
-50 0 0 -245 0 -245 -50 0 -50 0 0 400 0 400 -50 0 -50 0 0 -340 0 -340 -50 0
-50 0 0 485 0 485 -50 0 -50 0 0 -420 0 -420 -50 0 -50 0 0 570 0 570 -50 0
-50 0 0 -510 0 -510 -50 0 -50 0 0 575 0 575 -50 0 -50 0 0 -505 0 -505 -50 0
-50 0 0 590 0 590 -50 0 -50 0 0 -605 0 -605 -50 0 c-27 0 -50 5 -50 10 0 6
-22 10 -50 10 l-50 0 0 635 0 635 -50 0 -50 0 0 -560 0 -560 -50 0 -50 0 0
665 0 665 -50 0 -50 0 0 -630 0 -630 -50 0 -50 0 0 850 0 850 -50 0 -50 0 0
-655z"/>
<path d="M7190 2335 l0 -295 685 0 685 0 0 295 0 295 -685 0 -685 0 0 -295z
m1360 0 l0 -285 -675 0 -675 0 0 285 0 285 675 0 675 0 0 -285z"/>
<path d="M7283 2593 c-9 -3 -13 -36 -13 -114 l0 -109 135 0 135 0 0 115 0 115
-122 -1 c-68 0 -129 -3 -135 -6z"/>
<path d="M7283 2343 c-9 -3 -13 -36 -13 -114 l0 -109 135 0 135 0 0 115 0 115
-122 -1 c-68 0 -129 -3 -135 -6z"/>
<path d="M341 198 c2 -31 2 -31 6 -5 l4 27 2219 0 2219 0 4 -27 4 -28 2 28 1
27 2219 0 2220 0 4 -27 c4 -26 4 -26 6 5 l1 32 -4455 0 -4455 0 1 -32z"/>
</g>
</svg>
