<?xml version="1.0" standalone="no"?>
<!DOCTYPE svg PUBLIC "-//W3C//DTD SVG 20010904//EN"
 "http://www.w3.org/TR/2001/REC-SVG-20010904/DTD/svg10.dtd">
<svg version="1.0" xmlns="http://www.w3.org/2000/svg"
 width="962.000000pt" height="368.000000pt" viewBox="0 0 962.000000 368.000000"
 preserveAspectRatio="xMidYMid meet">
<metadata>
Created by potrace 1.15, written by Peter Selinger 2001-2017
</metadata>
<g transform="translate(0.000000,368.000000) scale(0.100000,-0.100000)"
fill="#000000" stroke="none">
<path d="M9600 1840 c0 -1220 3 -1840 10 -1840 7 0 10 620 10 1840 0 1220 -3
1840 -10 1840 -7 0 -10 -620 -10 -1840z"/>
<path d="M4030 1635 l0 -1635 765 0 765 0 0 1635 0 1635 -765 0 -765 0 0
-1635z"/>
<path d="M210 410 l0 -410 765 0 765 0 0 410 0 410 -765 0 -765 0 0 -410z"/>
<path d="M5940 45 l0 -45 765 0 765 0 0 45 0 45 -765 0 -765 0 0 -45z"/>
<path d="M7850 30 l0 -30 765 0 765 0 0 30 0 30 -765 0 -765 0 0 -30z"/>
<path d="M2120 10 c0 -7 262 -10 765 -10 503 0 765 3 765 10 0 7 -262 10 -765
10 -503 0 -765 -3 -765 -10z"/>
</g>
</svg>
