<?xml version="1.0" standalone="no"?>
<!DOCTYPE svg PUBLIC "-//W3C//DTD SVG 20010904//EN"
 "http://www.w3.org/TR/2001/REC-SVG-20010904/DTD/svg10.dtd">
<svg version="1.0" xmlns="http://www.w3.org/2000/svg"
 width="951.000000pt" height="369.000000pt" viewBox="0 0 951.000000 369.000000"
 preserveAspectRatio="xMidYMid meet">
<metadata>
Created by potrace 1.15, written by Peter Selinger 2001-2017
</metadata>
<g transform="translate(0.000000,369.000000) scale(0.100000,-0.100000)"
fill="#000000" stroke="none">
<path d="M1440 1760 l0 -1540 80 0 80 0 0 1540 0 1540 -80 0 -80 0 0 -1540z"/>
<path d="M800 1715 l0 -1495 80 0 80 0 0 1495 0 1495 -80 0 -80 0 0 -1495z"/>
<path d="M160 1450 l0 -1230 80 0 80 0 0 1230 0 1230 -80 0 -80 0 0 -1230z"/>
<path d="M2240 1430 l0 -1210 80 0 80 0 0 1210 0 1210 -80 0 -80 0 0 -1210z"/>
<path d="M2880 1085 l0 -865 80 0 80 0 0 865 0 865 -80 0 -80 0 0 -865z"/>
<path d="M3680 875 l0 -655 80 0 80 0 0 655 0 655 -80 0 -80 0 0 -655z"/>
<path d="M4320 730 l0 -510 80 0 80 0 0 510 0 510 -80 0 -80 0 0 -510z"/>
<path d="M5120 600 l0 -380 80 0 80 0 0 380 0 380 -80 0 -80 0 0 -380z"/>
<path d="M5760 480 l0 -260 80 0 80 0 0 260 0 260 -80 0 -80 0 0 -260z"/>
<path d="M6560 420 l0 -200 80 0 80 0 0 200 0 200 -80 0 -80 0 0 -200z"/>
<path d="M7200 380 l0 -160 80 0 80 0 0 160 0 160 -80 0 -80 0 0 -160z"/>
<path d="M8000 345 l0 -125 80 0 80 0 0 125 0 125 -80 0 -80 0 0 -125z"/>
<path d="M8640 325 l0 -105 80 0 80 0 0 105 0 105 -80 0 -80 0 0 -105z"/>
<path d="M9280 310 l0 -90 80 0 80 0 0 90 0 90 -80 0 -80 0 0 -90z"/>
<path d="M161 168 c2 -31 2 -31 6 -5 l4 27 2314 0 2314 0 4 -27 4 -28 2 28 1
27 2314 0 2315 0 4 -27 c4 -26 4 -26 6 5 l1 32 -4645 0 -4645 0 1 -32z"/>
</g>
</svg>
